<?xml version="1.0" ?>

<!-- Uploaded to: SVG Repo, www.svgrepo.com, Generator: SVG Repo Mixer Tools -->
<svg fill="#000000" width="800px" height="800px" viewBox="0 0 512 512" version="1.1" xml:space="preserve" xmlns="http://www.w3.org/2000/svg" xmlns:xlink="http://www.w3.org/1999/xlink">

<g id="Axe">

<g id="XMLID_1374_">

<path d="M16.466,474.754c-3.402,4.839-4.724,10.753-3.701,16.617c1.023,5.866,4.269,10.981,9.141,14.406    c10.054,7.067,23.985,4.638,31.054-5.418l81.419-113.879l-37.115-24.743L16.466,474.754z" id="XMLID_1375_"/>

<path d="M380.491,37.29c7.067-10.055,4.637-23.986-5.418-31.053c-4.87-3.424-10.78-4.746-16.648-3.723    c-5.866,1.024-10.981,4.27-14.404,9.14l-18.627,27.34c12.817,7.766,25.881,15.031,39.178,21.784L380.491,37.29z" id="XMLID_1376_"/>

<polygon id="XMLID_1377_" points="108.789,345.473 145.905,370.217 182.939,317.965 145.82,293.219   "/>

<path d="M475.354,124.398c-5.536,20.532-14.844,46.991-30.006,71.249    c-20.207,32.324-51.227,51.038-71.123,60.375c6.488,9.106,12.754,18.402,18.78,27.898c15.111-5.964,51.096-23.048,72.341-57.041    c22.617-36.187,31.362-78.549,34.226-96.499C491.441,128.545,483.371,126.544,475.354,124.398z" id="XMLID_1378_"/>

<path d="M428.453,185.085c13.983-22.372,22.595-47.007,27.733-66.144    c-60.251-18.217-117.023-45.376-169.41-81.092l-53.532,76.156c49.191,35.64,92.351,77.73,128.9,125.63    C379.433,232.029,409.576,215.281,428.453,185.085z" id="XMLID_1379_"/>

<path d="M157.345,276.956l37.121,24.747l86.669-122.282c-10.86-10.227-22.12-20.06-33.771-29.491    L157.345,276.956z" id="XMLID_1380_"/>

</g>

</g>

<g id="Layer_1"/>

</svg>