<?xml version="1.0" encoding="utf-8"?> <svg version="1.1" id="Layer_1" xmlns="http://www.w3.org/2000/svg" xmlns:xlink="http://www.w3.org/1999/xlink" x="0px" y="0px" viewBox="0 0 16 16" style="enable-background:new 0 0 16 16;" xml:space="preserve"><path fill="#ebebeb" d="M10.97164,9.20747l4.16231-4.16231c0.55422-0.55422,0.86533-1.30569,0.86533-2.08987l0,0
	C16,1.3232,14.6768,0,13.0448,0H0.51191v5.91049h3.98338c0.52213,0,0.78356,0.63164,0.41476,1.00044l-3.47369,3.47369
	C0.51627,11.30391,0,12.55111,0,13.85164V16h4.17911l5.02836-5.02836c0.32569-0.32569,0.88213-0.09493,0.88213,0.36516v4.66249H16
	v-2.9552c0-1.63209-1.3232-2.9552-2.9552-2.9552h-1.70729C10.87671,10.08951,10.64596,9.53316,10.97164,9.20747z"/></svg>